<svg width="114" height="69" viewBox="0 0 114 69" fill="none" xmlns="http://www.w3.org/2000/svg">
<rect y="9" width="114" height="60" rx="5" fill="#28313E"/>
<rect width="49" height="36" rx="5" fill="#28313E"/>
<rect x="46.1404" width="49" height="36" rx="5" transform="rotate(40 46.1404 0)" fill="#28313E"/>
<path d="M49.8947 38.2105H56.2105V31.8947H57.7895V38.2105H64.1053V39.7895H57.7895V46.1053H56.2105V39.7895H49.8947V38.2105ZM57 24C60.9782 24 64.7936 25.5804 67.6066 28.3934C70.4196 31.2064 72 35.0218 72 39C72 42.9782 70.4196 46.7936 67.6066 49.6066C64.7936 52.4196 60.9782 54 57 54C53.0218 54 49.2064 52.4196 46.3934 49.6066C43.5804 46.7936 42 42.9782 42 39C42 35.0218 43.5804 31.2064 46.3934 28.3934C49.2064 25.5804 53.0218 24 57 24ZM57 25.5789C53.4405 25.5789 50.0268 26.9929 47.5099 29.5099C44.9929 32.0268 43.5789 35.4405 43.5789 39C43.5789 42.5595 44.9929 45.9732 47.5099 48.4901C50.0268 51.0071 53.4405 52.4211 57 52.4211C60.5595 52.4211 63.9732 51.0071 66.4901 48.4901C69.0071 45.9732 70.4211 42.5595 70.4211 39C70.4211 35.4405 69.0071 32.0268 66.4901 29.5099C63.9732 26.9929 60.5595 25.5789 57 25.5789Z" fill="#59626F"/>
</svg>
